<?xml version="1.0" encoding="utf-8"?><!-- Uploaded to: SVG Repo, www.svgrepo.com, Generator: SVG Repo Mixer Tools -->
<svg fill="#000000" width="800px" height="800px" viewBox="0 0 24 24" id="loading-60" data-name="Flat Color" xmlns="http://www.w3.org/2000/svg" class="icon flat-color"><path id="primary" d="M12,22a1,1,0,0,1-1-1V18a1,1,0,0,1,2,0v3A1,1,0,0,1,12,22Zm6.36-2.64a1,1,0,0,1-.7-.29L15.54,17A1,1,0,1,1,17,15.54l2.12,2.12a1,1,0,0,1,0,1.41A1,1,0,0,1,18.36,19.36ZM7.05,18a1,1,0,0,1-.71-.29,1,1,0,0,1,0-1.42l.71-.7A1,1,0,1,1,8.46,17l-.7.71A1,1,0,0,1,7.05,18ZM21,13H18a1,1,0,0,1,0-2h3a1,1,0,0,1,0,2ZM6,13H4a1,1,0,0,1,0-2H6a1,1,0,0,1,0,2ZM16.24,8.76a1,1,0,0,1-.7-1.71l2.12-2.12a1,1,0,1,1,1.41,1.41L17,8.46A1,1,0,0,1,16.24,8.76Zm-8.48,0a1,1,0,0,1-.71-.3L4.93,6.34A1,1,0,0,1,6.34,4.93L8.46,7.05a1,1,0,0,1-.7,1.71ZM12,7a1,1,0,0,1-1-1V3a1,1,0,0,1,2,0V6A1,1,0,0,1,12,7Z" style="fill: rgb(0, 0, 0);"></path></svg>